<?xml version="1.0" standalone="no"?>
<!DOCTYPE svg PUBLIC "-//W3C//DTD SVG 20010904//EN"
 "http://www.w3.org/TR/2001/REC-SVG-20010904/DTD/svg10.dtd">
<svg version="1.0" xmlns="http://www.w3.org/2000/svg"
 width="2000.000000pt" height="2000.000000pt" viewBox="0 0 2000.000000 2000.000000"
 preserveAspectRatio="xMidYMid meet">
<metadata>
Created by potrace 1.14, written by Peter Selinger 2001-2017
</metadata>
<g transform="translate(0.000000,2000.000000) scale(0.100000,-0.100000)"
fill="#000000" stroke="none">
<path d="M3822 15558 c-9 -9 -12 -1260 -12 -5570 l0 -5558 6179 0 c5604 0
6181 1 6195 16 14 13 16 54 16 294 0 157 -4 290 -10 304 l-10 26 -5870 0
-5870 0 1 1233 0 1232 892 1052 c491 579 894 1052 897 1052 3 1 228 -452 500
-1006 549 -1117 529 -1081 658 -1145 62 -31 74 -33 167 -33 89 0 107 3 160 28
64 30 133 90 169 147 12 19 407 875 876 1903 767 1677 855 1865 866 1845 7
-13 381 -862 833 -1886 452 -1025 829 -1878 837 -1895 25 -47 108 -122 167
-151 71 -35 159 -49 228 -36 48 9 2974 1055 2991 1070 8 6 -216 639 -230 651
-4 3 -599 -207 -1322 -468 -723 -260 -1319 -471 -1325 -469 -5 2 -424 943
-930 2092 -863 1958 -923 2091 -968 2140 -31 34 -72 65 -113 85 -165 81 -382
29 -485 -116 -16 -22 -416 -888 -890 -1925 -474 -1037 -865 -1889 -868 -1893
-4 -4 -209 403 -456 905 -246 502 -461 932 -477 955 -113 167 -373 209 -539
88 -28 -20 -359 -402 -840 -969 l-794 -936 -5 3465 c-4 3066 -7 3467 -20 3475
-23 15 -583 13 -598 -2z"/>
</g>
</svg>
